<svg width="32" height="32" viewBox="0 0 32 32" fill="none" xmlns="http://www.w3.org/2000/svg">
<path d="M18.4778 27.7118H18.4745C17.9025 27.7157 17.165 27.7174 16.0086 27.7174C12.7394 27.7174 12.3075 27.7039 11.0048 27.6464C9.89357 27.5974 9.02713 27.4322 8.19181 27.1093C7.45037 26.8301 6.76275 26.3822 6.20331 25.8138L6.19818 25.8087C5.62068 25.2399 5.18324 24.5689 4.89655 23.8103C4.57549 22.9844 4.41037 22.118 4.36118 21.0013C4.30374 19.6944 4.29018 19.2617 4.29018 15.9963C4.29018 13.0927 4.3018 12.4171 4.34474 11.4469C4.35618 11.1883 4.1558 10.9694 3.89712 10.9579C3.64099 10.9463 3.41955 11.1469 3.40818 11.4055C3.36455 12.3919 3.35268 13.0745 3.35268 15.9963C3.35268 19.2814 3.36643 19.7189 3.42449 21.0425C3.47843 22.2661 3.66293 23.2244 4.02118 24.1458C4.35405 25.0268 4.8643 25.8101 5.53787 26.4741C6.19156 27.1374 6.99493 27.6603 7.85762 27.9851C8.78825 28.3448 9.74613 28.5293 10.9636 28.5829C12.2829 28.6411 12.7196 28.6548 16.0086 28.6548C17.1673 28.6548 17.9067 28.6531 18.481 28.6491C18.7399 28.6473 18.9483 28.4359 18.9465 28.1771C18.9446 27.9195 18.7351 27.7118 18.4778 27.7118Z" fill="white"/>
<path d="M27.3834 22.9918C27.3189 23.2425 27.47 23.498 27.7207 23.5624C27.7598 23.5725 27.799 23.5773 27.8376 23.5773C28.0465 23.5773 28.237 23.4367 28.2913 23.2251C28.4577 22.5776 28.5562 21.8637 28.5923 21.0426C28.6505 19.7179 28.6642 19.2803 28.6642 15.9965C28.6642 14.5468 28.6632 13.6938 28.658 13.0545C28.6558 12.7957 28.445 12.5872 28.1854 12.5897C27.9264 12.5918 27.7183 12.8034 27.7205 13.0623C27.7257 13.6982 27.7267 14.5493 27.7267 15.9965C27.7267 19.2604 27.7132 19.6934 27.6557 21.0014C27.6225 21.7568 27.5334 22.4078 27.3834 22.9918Z" fill="white"/>
<path d="M14.1541 4.27313H14.1558C14.6542 4.27132 15.2583 4.27051 16.0132 4.27051C19.299 4.27051 19.7289 4.28495 21.0218 4.34632C22.1331 4.39532 22.9994 4.56057 23.8346 4.88351C24.576 5.16257 25.2636 5.61051 25.8231 6.17895C25.8253 6.18107 25.8274 6.1832 25.8296 6.18532C26.4038 6.74651 26.8409 7.41707 27.1301 8.18251C27.4511 9.00801 27.6161 9.87432 27.6653 10.9916C27.6764 11.2431 27.8839 11.4396 28.1333 11.4396C28.1402 11.4396 28.1473 11.4395 28.1543 11.4392C28.4129 11.4278 28.6133 11.2089 28.6019 10.9503C28.5479 9.72632 28.3635 8.76795 28.0054 7.84701C27.6697 6.95845 27.1592 6.17488 26.4881 5.51807C25.8344 4.85501 25.0312 4.33226 24.1689 4.00763C23.2384 3.64782 22.2806 3.46338 21.0647 3.40982C19.7554 3.3477 19.3205 3.33301 16.0133 3.33301C15.2569 3.33301 14.6517 3.33376 14.1525 3.33563C13.8936 3.33657 13.6845 3.5472 13.6854 3.80607C13.6863 4.06438 13.896 4.27313 14.1541 4.27313Z" fill="white"/>
<path d="M10.5746 13.193C10.3364 13.0923 10.0611 13.2037 9.96025 13.4421C9.61844 14.2506 9.44513 15.1091 9.44513 15.994C9.44513 19.6088 12.3849 22.5498 15.9983 22.5498C19.6118 22.5498 22.5515 19.6089 22.5515 15.994C22.5515 12.3791 19.6118 9.43826 15.9983 9.43826C14.1181 9.43826 12.3259 10.248 11.0815 11.6599C10.9103 11.8541 10.929 12.1503 11.1232 12.3215C11.3174 12.4926 11.6137 12.4739 11.7848 12.2798C12.8513 11.0697 14.3871 10.3757 15.9983 10.3757C19.0948 10.3757 21.614 12.896 21.614 15.9939C21.614 19.0919 19.0948 21.6122 15.9983 21.6122C12.9018 21.6122 10.3826 19.0919 10.3826 15.9939C10.3826 15.2352 10.5311 14.4994 10.8238 13.8072C10.9246 13.5688 10.8131 13.2938 10.5746 13.193Z" fill="white"/>
<path d="M15.9983 20.674C18.5779 20.674 20.6766 18.5746 20.6766 15.994C20.6766 13.4135 18.5779 11.314 15.9983 11.314C13.4187 11.314 11.3201 13.4135 11.3201 15.994C11.3201 18.5746 13.4187 20.674 15.9983 20.674ZM15.9983 12.2515C18.0609 12.2515 19.7391 13.9304 19.7391 15.994C19.7391 18.0576 18.0609 19.7365 15.9983 19.7365C13.9357 19.7365 12.2576 18.0576 12.2576 15.994C12.2576 13.9304 13.9357 12.2515 15.9983 12.2515Z" fill="white"/>
<path d="M25.0186 9.03489C25.0186 8.08689 24.2476 7.31564 23.2999 7.31564C22.3522 7.31564 21.5812 8.08689 21.5812 9.03489C21.5812 9.98289 22.3522 10.7541 23.2999 10.7541C24.2476 10.7541 25.0186 9.98289 25.0186 9.03489ZM22.5187 9.03489C22.5187 8.60383 22.8691 8.25314 23.2999 8.25314C23.7307 8.25314 24.0811 8.60383 24.0811 9.03489C24.0811 9.46596 23.7307 9.81664 23.2999 9.81664C22.8691 9.81658 22.5187 9.46596 22.5187 9.03489Z" fill="white"/>
<path d="M30.5676 24.5303H23.2342L20.7609 22.6492C20.6191 22.5413 20.4284 22.5232 20.2689 22.6023C20.1093 22.6814 20.0084 22.8441 20.0084 23.0222V30.5665C20.0084 31.3569 20.6509 31.9999 21.4407 31.9999H22.4553C22.7142 31.9999 22.924 31.7901 22.924 31.5312C22.924 31.2723 22.7142 31.0624 22.4553 31.0624H21.4407C21.1679 31.0624 20.9459 30.8399 20.9459 30.5665V23.9677L22.7924 25.3722C22.874 25.4342 22.9737 25.4678 23.0762 25.4678H30.5676C30.8405 25.4678 31.0625 25.6903 31.0625 25.9637V30.5666C31.0625 30.84 30.8405 31.0625 30.5676 31.0625H24.6111C24.3522 31.0625 24.1424 31.2724 24.1424 31.5312C24.1424 31.7901 24.3522 32 24.6111 32H30.5676C31.3574 32 32 31.3569 32 30.5666V25.9637C32 25.1733 31.3574 24.5303 30.5676 24.5303Z" fill="white"/>
<path d="M23.0278 29.8161H29.274C29.5329 29.8161 29.7428 29.6062 29.7428 29.3473C29.7428 29.0884 29.5329 28.8786 29.274 28.8786H23.0278C22.7688 28.8786 22.559 29.0884 22.559 29.3473C22.559 29.6062 22.7689 29.8161 23.0278 29.8161Z" fill="white"/>
<path d="M23.0278 27.6902H28.6494C28.9084 27.6902 29.1182 27.4804 29.1182 27.2215C29.1182 26.9626 28.9084 26.7527 28.6494 26.7527H23.0278C22.7688 26.7527 22.559 26.9626 22.559 27.2215C22.559 27.4804 22.7689 27.6902 23.0278 27.6902Z" fill="white"/>
<path d="M7.47231 11.1661C7.55988 11.2924 7.70381 11.3677 7.8575 11.3677C8.01119 11.3677 8.15513 11.2924 8.24269 11.1661L9.24531 9.7205H10.9063C11.7658 9.7205 12.465 9.02106 12.465 8.16131V1.55919C12.465 0.699438 11.7658 0 10.9063 0H4.96225C4.70331 0 4.4935 0.209875 4.4935 0.46875C4.4935 0.727625 4.70331 0.9375 4.96225 0.9375H10.9063C11.2488 0.9375 11.5274 1.21637 11.5274 1.55919V8.16138C11.5274 8.50419 11.2488 8.78306 10.9063 8.78306H8.99988C8.84619 8.78306 8.70225 8.85838 8.61469 8.98469L7.85744 10.0765L7.10013 8.98469C7.01256 8.85838 6.86863 8.78306 6.71494 8.78306H1.55869C1.21619 8.78306 0.9375 8.50419 0.9375 8.16138V1.55919C0.9375 1.21637 1.21619 0.9375 1.55869 0.9375H2.80325C3.06219 0.9375 3.272 0.727625 3.272 0.46875C3.272 0.209875 3.06219 0 2.80331 0H1.55869C0.69925 0 0 0.699438 0 1.55919V8.16138C0 9.02112 0.69925 9.72056 1.55869 9.72056H6.46956L7.47231 11.1661Z" fill="white"/>
<path d="M5.90098 7.01649C5.98892 7.10443 6.10817 7.15386 6.23254 7.15386C6.35692 7.15386 6.47611 7.10443 6.56411 7.01649L8.35929 5.22049C8.96672 4.6128 8.96729 3.62455 8.36048 3.01749C8.06666 2.72349 7.67598 2.56168 7.26023 2.56168H7.25898C6.87742 2.56193 6.51667 2.69855 6.23248 2.94849C5.94836 2.69855 5.58767 2.56193 5.20605 2.56168H5.2048C4.78911 2.56168 4.39843 2.72349 4.10455 3.01743C3.4978 3.62449 3.4983 4.61274 4.10574 5.22043L5.90098 7.01649ZM4.76767 3.6803C4.88436 3.56355 5.03961 3.4993 5.20486 3.4993H5.20536C5.37099 3.49943 5.52686 3.56411 5.64417 3.68155L5.90098 3.93843C5.98886 4.02636 6.10811 4.07574 6.23248 4.07574C6.35686 4.07574 6.47611 4.0263 6.56404 3.93836L6.82079 3.68143C6.93811 3.56411 7.09392 3.49936 7.2596 3.49924H7.2601C7.42535 3.49924 7.5806 3.56349 7.69729 3.68024C7.93879 3.9218 7.93823 4.31543 7.6961 4.55768L6.23254 6.02205L4.76886 4.55774C4.52674 4.31555 4.52617 3.92186 4.76767 3.6803Z" fill="white"/>
</svg>
